<svg viewBox="0 0 24 24" fill="none" xmlns="http://www.w3.org/2000/svg">
  <path 
    d="M2 3H8C9.06087 3 10.0783 3.42143 10.8284 4.17157C11.5786 4.92172 12 5.93913 12 7V21C12 20.4696 11.7893 19.9609 11.4142 19.5858C11.0391 19.2107 10.5304 19 10 19H2V3Z" 
    fill="#10b981"
    fill-opacity="0.1"
    stroke="#10b981" 
    stroke-width="2" 
    stroke-linejoin="round"
  />
  <path 
    d="M22 3H16C14.9391 3 13.9217 3.42143 13.1716 4.17157C12.4214 4.92172 12 5.93913 12 7V21C12 20.4696 12.2107 19.9609 12.5858 19.5858C12.9609 19.2107 13.4696 19 14 19H22V3Z" 
    fill="#10b981"
    stroke="#10b981" 
    stroke-width="2" 
    stroke-linejoin="round"
  />
</svg>
